<?xml version="1.0" encoding="iso-8859-1"?><!-- Generator: Adobe Illustrator 22.1.0, SVG Export Plug-In . SVG Version: 6.00 Build 0)  --><svg xmlns="http://www.w3.org/2000/svg" xmlns:xlink="http://www.w3.org/1999/xlink" viewBox="0 0 48 48" width="48px" height="48px"><g><path style="fill:#A3A3CD;" d="M12,19.417c0,0-0.451-1.583-1.417-2.375S8.133,16.833,8.197,18c0.064,1.167-0.129,2.542-0.193,3.042   c-0.064,0.5,0.58,2.208,0.451,2.625s-0.064,1.958,1.417,1.75C11.356,25.208,12,19.417,12,19.417z"/></g><g><path style="fill:#6B6AAF;" d="M9.479,17.75c0,0,1.041,0.208,1.699,2.375c-0.273,2.083-0.438,0.917-0.438,0.917   S10.082,18.25,9.479,17.75z"/></g><g><path style="fill:#6B6AAF;" d="M10.63,19c0,0-1.315,1-1.315,2s1.315,3,1.315,3l0.356-2.833L10.63,19z"/></g><g><path style="fill:#A3A3CD;" d="M38.127,25.417c1.482,0.208,1.546-1.333,1.417-1.75s0.515-2.125,0.451-2.625   S39.738,19.167,39.802,18s-1.419-1.75-2.385-0.958S36,19.417,36,19.417S36.644,25.208,38.127,25.417z"/></g><g><path style="fill:#6B6AAF;" d="M37.259,21.042c0,0-0.164,1.166-0.438-0.917c0.657-2.167,1.699-2.375,1.699-2.375   C37.918,18.25,37.259,21.042,37.259,21.042z"/></g><g><path style="fill:#6B6AAF;" d="M37.37,19c0,0,1.315,1,1.315,2s-1.315,3-1.315,3l-0.356-2.833L37.37,19z"/></g><g><path style="fill:#A3A3CD;" d="M30.317,46h-12.69c-2.159,0-4.069-1.4-4.72-3.459l-2.657-8.415   c-0.166-0.524-0.237-1.074-0.211-1.623L11,12c0-5,5-10,13.167-10C31,2,37,6,37,12l0.961,19.868   c0.026,0.529-0.039,1.058-0.191,1.565l-2.712,9.04C34.43,44.566,32.503,46,30.317,46z"/></g><g><polygon style="fill:#8A8AC1;" points="19.469,17.906 17.469,17.906 13,10 15,10  "/></g><g><polygon style="fill:#8A8AC1;" points="22.688,16.656 20.688,16.656 17,10 19,10  "/></g><g><polygon style="fill:#8A8AC1;" points="28.219,17.906 30.219,17.906 34.688,10 32.688,10  "/></g><g><polygon style="fill:#8A8AC1;" points="25,16.656 27,16.656 30.688,10 28.688,10  "/></g><g><polygon style="fill:#6B6AAF;" points="25.5,17 26.5,16 31.5,15 35.5,18 34.5,19 29.5,20  "/></g><g><path style="fill:#6B6AAF;" d="M24.375,12.917c0,0,1.25,2.708,2.208,3.167c0.156,0.969-0.426,0.635-0.426,0.635   S24.354,16.104,24.375,12.917z"/></g><g><path style="fill:#6B6AAF;" d="M25.729,17.167c-1.781-1.406-3.865,0.24-3.865,0.24s-0.115-0.135-0.365-0.698   c2.281-2,4.917-0.146,4.917-0.146L25.729,17.167z"/></g><g><polygon style="fill:#6B6AAF;" points="22.375,17 21.375,16 16.375,15 12.375,18 13.375,19 18.375,20  "/></g><g><path style="fill:#6B6AAF;" d="M23.5,12.917c0,0-1.25,2.708-2.208,3.167c-0.156,0.969,0.426,0.635,0.426,0.635   S23.521,16.104,23.5,12.917z"/></g><g><path style="fill:#263238;" d="M32.247,14.447c1.052,0.871,1.992,1.979,3.253,3.553l-3.813-2.083L32.247,14.447z"/></g><g><path style="fill:#263238;" d="M25.422,16.094l1.828,1.469l5.167-0.75l0.854-0.354c-0.583-2.438-1.599-2.553-3.162-2.084   C28.391,14.828,27.078,15.344,25.422,16.094z"/></g><g><path style="fill:#FFFFFF;" d="M27.219,17.563C27.535,16.694,28.294,16,29.294,16H30c0.918,0,2.194,0.289,2.771,0.583   C32.253,17.242,31.409,18,29.479,18C28.6,18,28.083,17.896,27.219,17.563z"/></g><g><path style="fill:#EBA272;" d="M30,16h-0.706c-0.142,0-0.278,0.019-0.41,0.046c-0.053,0.011-0.103,0.027-0.155,0.042   c-0.075,0.021-0.148,0.046-0.219,0.076c-0.056,0.023-0.112,0.048-0.165,0.076c-0.074,0.039-0.145,0.083-0.214,0.13   c-0.034,0.023-0.07,0.043-0.102,0.068c-0.009,0.007-0.017,0.016-0.026,0.023C28.003,16.474,28,16.486,28,16.5   c0,0.828,0.672,1.5,1.5,1.5s1.5-0.672,1.5-1.5c0-0.147-0.036-0.285-0.077-0.419C30.602,16.034,30.284,16,30,16z"/></g><g><circle style="fill:#263238;" cx="29.5" cy="16.5" r="0.5"/></g><g><path style="fill:#263238;" d="M15.675,14.447c-1.052,0.871-1.992,1.979-3.253,3.553l3.813-2.083L15.675,14.447z"/></g><g><path style="fill:#263238;" d="M17.813,14.375c-1.563-0.469-2.579-0.354-3.162,2.084l0.854,0.354l5.167,0.75l1.828-1.469   C20.844,15.344,19.531,14.828,17.813,14.375z"/></g><g><path style="fill:#FFFFFF;" d="M18.469,18c-1.93,0-2.774-0.758-3.292-1.417C15.754,16.289,17.03,16,17.948,16h0.706   c1,0,1.759,0.694,2.075,1.563C19.865,17.896,19.348,18,18.469,18z"/></g><g><path style="fill:#EBA272;" d="M18,16h0.706c0.142,0,0.278,0.019,0.41,0.046c0.053,0.011,0.103,0.027,0.155,0.042   c0.075,0.021,0.148,0.046,0.219,0.076c0.056,0.023,0.112,0.048,0.165,0.076c0.074,0.039,0.145,0.083,0.214,0.13   c0.034,0.023,0.07,0.043,0.102,0.068c0.009,0.007,0.017,0.016,0.026,0.023C19.997,16.474,20,16.486,20,16.5   c0,0.828-0.672,1.5-1.5,1.5S17,17.328,17,16.5c0-0.147,0.036-0.285,0.077-0.419C17.398,16.034,17.716,16,18,16z"/></g><g><circle style="fill:#263238;" cx="18.5" cy="16.5" r="0.5"/></g><g><polygon style="fill:#6B6AAF;" points="27,24 23.969,25 21,24 21,22 23.969,23 27,22  "/></g><g><polygon style="fill:#8A8AC1;" points="19,30 17,30 12,21 14,21  "/></g><g><polygon style="fill:#8A8AC1;" points="23,30 21,30 16,21 18,21  "/></g><g><polygon style="fill:#8A8AC1;" points="29,30 31,30 36,21 34,21  "/></g><g><polygon style="fill:#8A8AC1;" points="25,30 27,30 32,21 30,21  "/></g><g><path style="fill:#6B6AAF;" d="M17,30c4.662-1.303,9.333-1.281,14,0"/><path style="fill:#6B6AAF;" d="M30.735,30.965c-4.511-1.238-9.042-1.238-13.466-0.002l-0.538-1.926   c4.778-1.335,9.668-1.336,14.534-0.002L30.735,30.965z"/></g><g><polygon style="fill:#6B6AAF;" points="19,22 19,24 14.625,27.828 13.719,31.922 13.609,26.953  "/></g><g><polygon style="fill:#6B6AAF;" points="34.391,26.953 34.281,31.922 33.375,27.828 29,24 29,22  "/></g><g><path style="fill:#8A8AC1;" d="M10.502,22.621l-0.463,9.882c-0.026,0.549,0.046,1.098,0.211,1.623l2.657,8.415   c0.025,0.079,0.064,0.15,0.092,0.227V27l-1-2l-1.375-2.938L10.502,22.621z"/></g><g><path style="fill:#8A8AC1;" d="M35.058,42.473l2.712-9.04c0.152-0.507,0.217-1.036,0.191-1.565l-0.443-9.153l-0.143-0.652L36,25   l-1,2v15.621C35.017,42.571,35.043,42.524,35.058,42.473z"/></g><g><path style="fill:#8A8AC1;" d="M12.908,42.541C13.558,44.6,15.468,46,17.627,46h12.69c2.186,0,4.113-1.434,4.741-3.527l0.182-0.606   c-0.734,0.878-2.133,2.319-3.692,2.716c-2.24,0.57-3.827-2.358-7.537-2.331c0-0.001,0-0.001,0-0.002   c-0.043-0.002-0.082,0.002-0.124,0.001c-0.043,0.001-0.081-0.003-0.124-0.001c0,0.001,0,0.001,0,0.002   c-3.71-0.026-5.297,2.902-7.537,2.331c-1.397-0.356-2.664-1.548-3.441-2.425L12.908,42.541z"/></g><g><g><rect x="23" y="32" style="fill:#6B6AAF;" width="2" height="14"/></g><g><path style="fill:#6B6AAF;" d="M33,45.192V33h-2v12.944C31.726,45.843,32.402,45.579,33,45.192z"/></g><g><rect x="27" y="32" style="fill:#6B6AAF;" width="2" height="14"/></g><g><path style="fill:#6B6AAF;" d="M17,45.949V33h-2v12.228C15.6,45.605,16.276,45.857,17,45.949z"/></g><g><rect x="19" y="32" style="fill:#6B6AAF;" width="2" height="14"/></g></g></svg>