<svg xmlns="http://www.w3.org/2000/svg" xmlns:xlink="http://www.w3.org/1999/xlink" viewBox="0,0,255.99431,255.99431" width="64px" height="64px" fill-rule="nonzero"><g fill="#050505" fill-rule="nonzero" stroke="none" stroke-width="1" stroke-linecap="butt" stroke-linejoin="miter" stroke-miterlimit="10" stroke-dasharray="" stroke-dashoffset="0" font-family="none" font-weight="none" font-size="none" text-anchor="none" style="mix-blend-mode: normal"><g transform="scale(4,4)"><path d="M26,4c-2.61,4 -7,12 -7,19c0,2.61 1.40078,4.11094 3.30078,4.96094c-2.72,0.15 -5.35078,-0.01094 -6.30078,-0.96094c-1.5,-1.5 -1.5,-14 1,-20.5c-3,4.5 -5,11.5 -5,18.5c0,3 0.5,4.5 1,5c1.24,1.24 7.26938,0.42938 11.85938,0.10938c0.22,-0.46 0.47,-0.87953 0.75,-1.26953c0.33,-0.5 0.69008,-0.95008 1.08008,-1.33008c0.27,-0.26 0.54031,-0.47992 0.82031,-0.66992c-0.56,0.13 -1.06977,0.20063 -1.50977,0.14063c-1.81,-0.24 -2.72,-1.30047 -3,-2.98047c-0.58,-3.49 0.5,-11 3,-20zM38,4c2.5,9 3.58,16.51 3,20c-0.28,1.68 -1.19,2.74047 -3,2.98047c-0.44,0.06 -0.94977,-0.01063 -1.50977,-0.14062c0.28,0.19 0.55031,0.40992 0.82031,0.66992c0.39,0.38 0.75008,0.83008 1.08008,1.33008c0.28,0.39 0.53,0.80953 0.75,1.26953c4.59,0.32 10.61937,1.13062 11.85938,-0.10937c0.5,-0.5 1,-2 1,-5c0,-7 -2,-14 -5,-18.5c2.5,6.5 2.5,19 1,20.5c-0.95,0.95 -3.58078,1.11094 -6.30078,0.96094c1.9,-0.85 3.30078,-2.35094 3.30078,-4.96094c0,-7 -4.39,-15 -7,-19zM32,14c-2.761,0 -5,3.134 -5,7c0,2.52501 1.59248,4.44736 3.01953,5.52539c-2.90073,1.55683 -5.01953,6.43654 -5.01953,12.22461c0,7.042 4,15.26172 7,15.26172c3,0 7,-8.21972 7,-15.26172c0,-5.78807 -2.1188,-10.66778 -5.01953,-12.22461c1.42705,-1.07803 3.01953,-3.00038 3.01953,-5.52539c0,-3.866 -2.239,-7 -5,-7zM24.74023,30.33984c-5.56,1.06 -14.30023,3.91016 -15.24023,5.16016c-1.5,2 3.5,16.5 8.5,23.5c-2.5,-6 -5.42969,-19.69922 -3.92969,-21.19922c1.5,-1.5 4.42969,-2.30078 4.42969,-2.30078c-1,2 -1,9 5.5,20c-2.56,-8.11 -4.75969,-16.94961 -0.67969,-20.59961c0.3,-1.71 0.78992,-3.25055 1.41992,-4.56055zM39.25977,30.33984c0.63,1.31 1.11992,2.85055 1.41992,4.56055c4.08,3.65 1.88031,12.48961 -0.67969,20.59961c6.5,-11 6.5,-18 5.5,-20c0,0 2.92969,0.80078 4.42969,2.30078c1.5,1.5 -1.42969,15.19922 -3.92969,21.19922c5,-7 10,-21.5 8.5,-23.5c-0.94,-1.25 -9.68023,-4.10016 -15.24023,-5.16016z"></path></g></g></svg>